<svg xmlns="http://www.w3.org/2000/svg" data-name="Layer 1" viewBox="0 0 512 640" x="0px" y="0px"><title>N_F04Artboard 1 copy 9</title><path d="M121.58,394.88a40.17,40.17,0,1,0-30,0,63.38,63.38,0,0,0-48.31,61.45,4.64,4.64,0,0,0,9.27,0,54,54,0,0,1,108.08,0,4.64,4.64,0,0,0,9.27,0A63.37,63.37,0,0,0,121.58,394.88Zm-45.9-37.22a30.89,30.89,0,1,1,30.89,30.89A30.93,30.93,0,0,1,75.68,357.66Z"/><path d="M420.44,203a40.17,40.17,0,1,0-30,0,63.37,63.37,0,0,0-48.3,61.44,4.64,4.64,0,1,0,9.27,0,54,54,0,0,1,108.08,0,4.64,4.64,0,1,0,9.27,0A63.37,63.37,0,0,0,420.44,203Zm-45.9-37.23a30.89,30.89,0,1,1,30.89,30.9A30.92,30.92,0,0,1,374.54,165.79Z"/><path d="M112.28,206H255.91l60.88,29a4.57,4.57,0,0,0,2,.46,4.65,4.65,0,0,0,4.3-6.39l-18.35-45.12a62.54,62.54,0,0,0,15-40.76V113.83A62.86,62.86,0,0,0,257,51H112.28a62.86,62.86,0,0,0-62.79,62.79v29.33A62.87,62.87,0,0,0,112.28,206ZM58.76,113.83a53.58,53.58,0,0,1,53.52-53.52H257a53.58,53.58,0,0,1,53.53,53.52v29.33A53.36,53.36,0,0,1,296,179.81a4.64,4.64,0,0,0-.92,4.92L310,221.46l-51-24.32a4.61,4.61,0,0,0-2-.45H112.28a53.58,53.58,0,0,1-53.52-53.53Z"/><path d="M356,293.43H232.3a44.11,44.11,0,0,0-44.06,44.06v18.34a44.84,44.84,0,0,0,9.65,27.84L182.3,415.2a4.64,4.64,0,0,0,4.16,6.69,4.71,4.71,0,0,0,1.9-.41l45.85-20.68H356a45,45,0,0,0,45-45V338.4A45,45,0,0,0,356,293.43Zm35.7,62.4a35.74,35.74,0,0,1-35.7,35.7H233.21a4.61,4.61,0,0,0-1.9.41l-35,15.76,11.2-22.65a4.63,4.63,0,0,0-.73-5.18,35.61,35.61,0,0,1-9.31-24V337.49A34.83,34.83,0,0,1,232.3,302.7H356a35.74,35.74,0,0,1,35.7,35.7Z"/><path d="M206.2,112.38h38.21a4.64,4.64,0,0,0,0-9.27H206.2a4.64,4.64,0,1,0,0,9.27Z"/><path d="M118.44,112.38h40.08a4.64,4.64,0,1,0,0-9.27H118.44a4.64,4.64,0,1,0,0,9.27Z"/><path d="M244.41,142.26H228.22a4.64,4.64,0,1,0,0,9.27h16.19a4.64,4.64,0,0,0,0-9.27Z"/><path d="M118.44,151.53h74a4.64,4.64,0,1,0,0-9.27h-74a4.64,4.64,0,1,0,0,9.27Z"/><path d="M341.22,338.32H317.38a4.64,4.64,0,1,0,0,9.28h23.84a4.64,4.64,0,1,0,0-9.28Z"/><path d="M295.38,338.32H244.1a4.64,4.64,0,1,0,0,9.28h51.28a4.64,4.64,0,1,0,0-9.28Z"/><text x="0" y="527" fill="#000000" font-size="5px" font-weight="bold" font-family="'Helvetica Neue', Helvetica, Arial-Unicode, Arial, Sans-serif">Created by Teewara soontorn</text><text x="0" y="532" fill="#000000" font-size="5px" font-weight="bold" font-family="'Helvetica Neue', Helvetica, Arial-Unicode, Arial, Sans-serif">from the Noun Project</text></svg>